<?xml version="1.0" encoding="UTF-8" standalone="no"?>
<!-- Created with Inkscape (http://www.inkscape.org/) -->

<svg
   version="1.1"
   id="svg16781"
   width="880"
   height="880"
   viewBox="0 0 880 880"
   sodipodi:docname="plastic-pipes-clip-art-pdv.svg"
   inkscape:version="1.2 (dc2aedaf03, 2022-05-15)"
   xmlns:inkscape="http://www.inkscape.org/namespaces/inkscape"
   xmlns:sodipodi="http://sodipodi.sourceforge.net/DTD/sodipodi-0.dtd"
   xmlns="http://www.w3.org/2000/svg"
   xmlns:svg="http://www.w3.org/2000/svg">
  <defs
     id="defs16785">
    <clipPath
       clipPathUnits="userSpaceOnUse"
       id="clipPath16797">
      <path
         d="M 0,660 H 660 V 0 H 0 Z"
         id="path16795" />
    </clipPath>
  </defs>
  <sodipodi:namedview
     id="namedview16783"
     pagecolor="#ffffff"
     bordercolor="#000000"
     borderopacity="0.25"
     inkscape:showpageshadow="2"
     inkscape:pageopacity="0.0"
     inkscape:pagecheckerboard="0"
     inkscape:deskcolor="#d1d1d1"
     showgrid="false"
     inkscape:zoom="0.95113636"
     inkscape:cx="441.05137"
     inkscape:cy="440.52569"
     inkscape:window-width="1920"
     inkscape:window-height="1017"
     inkscape:window-x="-8"
     inkscape:window-y="-8"
     inkscape:window-maximized="1"
     inkscape:current-layer="g16789">
    <inkscape:page
       x="0"
       y="0"
       id="page16787"
       width="880"
       height="880" />
  </sodipodi:namedview>
  <g
     id="g16789"
     inkscape:groupmode="layer"
     inkscape:label="Page 1"
     transform="matrix(1.3333333,0,0,-1.3333333,0,880)">
    <g
       id="g16791">
      <g
         id="g16793"
         clip-path="url(#clipPath16797)">
        <g
           id="g16799"
           transform="translate(549.1484,321.5996)">
          <path
             d="m 0,0 c 24.766,6.914 52.326,-14.29 61.562,-47.365 9.234,-33.073 -3.357,-65.49 -28.122,-72.403 l -242.486,-67.705 -6.009,21.518 c -9.4,8.575 -17.049,20.86 -21.126,35.458 -4.077,14.599 -3.897,29.069 -0.298,41.275 l -6.008,21.518 z"
             style="fill:#c96500;fill-opacity:1;fill-rule:evenodd;stroke:none"
             id="path16801" />
        </g>
        <g
           id="g16803"
           transform="translate(608.8818,279.9717)">
          <path
             d="m 0,0 c 0.669,-1.871 1.281,-3.78 1.828,-5.735 9.234,-33.075 -3.356,-65.492 -28.121,-72.406 l -239.417,-66.846 4.441,18.612 C -198.866,-108.285 -2.986,-54.541 0,0"
             style="fill:#b05800;fill-opacity:1;fill-rule:evenodd;stroke:none"
             id="path16805" />
        </g>
        <g
           id="g16807"
           transform="translate(300.0234,258.2393)">
          <path
             d="m 0,0 c 27.143,7.578 57.351,-15.662 67.472,-51.911 10.121,-36.248 -3.679,-71.776 -30.822,-79.356 l -37.731,-10.534 -6.584,23.582 c -10.304,9.399 -18.688,22.864 -23.153,38.865 -4.469,16 -4.273,31.86 -0.329,45.238 l -6.584,23.581 z"
             style="fill:#de7309;fill-opacity:1;fill-rule:evenodd;stroke:none"
             id="path16809" />
        </g>
        <g
           id="g16811"
           transform="translate(370.5039,175.4473)">
          <path
             d="m 0,0 c -2.084,-23.727 -14.61,-43.108 -33.83,-48.475 l -19.502,-5.444 c -2.101,10.561 -4.455,23.302 -6.103,29.985 C -34.783,-33.761 -4.037,-9.348 0,0"
             style="fill:#d16a02;fill-opacity:1;fill-rule:evenodd;stroke:none"
             id="path16813" />
        </g>
        <g
           id="g16815"
           transform="translate(260.667,256.5449)">
          <path
             d="m 0,0 c 30.709,8.574 64.886,-17.721 76.337,-58.73 11.449,-41.011 -4.162,-81.206 -34.871,-89.781 l -42.688,-11.919 -7.45,26.68 c -11.657,10.636 -21.142,25.867 -26.196,43.971 -5.054,18.101 -4.833,36.045 -0.371,51.181 l -7.449,26.679 z"
             style="fill:#eb821a;fill-opacity:1;fill-rule:evenodd;stroke:none"
             id="path16817" />
        </g>
        <g
           id="g16819"
           transform="translate(340.1416,160.2832)">
          <path
             d="m 0,0 c -3.018,-25.655 -16.969,-46.374 -38.009,-52.249 l -42.687,-11.919 -7.45,26.68 c -0.456,0.415 -0.907,0.839 -1.355,1.266 C -52.57,-35.821 -7.4,-9.513 0,0"
             style="fill:#e07912;fill-opacity:1;fill-rule:evenodd;stroke:none"
             id="path16821" />
        </g>
        <g
           id="g16823"
           transform="translate(217.9795,244.627)">
          <path
             d="m 0,0 c 30.707,8.574 64.884,-17.722 76.334,-58.732 11.451,-41.01 -4.161,-81.205 -34.868,-89.78 -30.71,-8.574 -64.886,17.72 -76.337,58.732 C -46.32,-48.771 -30.709,-8.574 0,0"
             style="fill:#f7b26c;fill-opacity:1;fill-rule:evenodd;stroke:none"
             id="path16825" />
        </g>
        <g
           id="g16827"
           transform="translate(219.7568,238.2598)">
          <path
             d="M 0,0 C 27.143,7.577 57.632,-16.673 68.1,-54.168 78.569,-91.661 65.052,-128.2 37.91,-135.777 10.769,-143.355 -19.722,-119.104 -30.191,-81.61 -40.658,-44.116 -27.143,-7.579 0,0"
             style="fill:#bf640a;fill-opacity:1;fill-rule:evenodd;stroke:none"
             id="path16829" />
        </g>
        <g
           id="g16831"
           transform="translate(251.3369,233.873)">
          <path
             d="m 0,0 c 16.115,-8.732 30.091,-26.757 36.52,-49.781 6.428,-23.023 3.811,-45.682 -5.45,-61.499 -16.114,8.732 -30.093,26.759 -36.521,49.781 C -11.879,-38.475 -9.261,-15.817 0,0"
             style="fill:#d46f0b;fill-opacity:1;fill-rule:evenodd;stroke:none"
             id="path16833" />
        </g>
        <g
           id="g16835"
           transform="translate(230.0098,239.6455)">
          <path
             d="m 0,0 c -20.655,-12.566 -29.879,-44.659 -20.714,-77.487 9.166,-32.829 33.681,-55.501 57.859,-55.55 -1.143,-0.697 -2.322,-1.331 -3.535,-1.903 -25.422,-2.628 -52.184,20.708 -61.856,55.349 -9.673,34.641 1.131,68.465 24.236,79.387 C -2.676,-0.064 -1.339,0.004 0,0"
             style="fill:#333333;fill-opacity:1;fill-rule:evenodd;stroke:none"
             id="path16837" />
        </g>
        <g
           id="g16839"
           transform="translate(429.9668,457.1689)">
          <path
             d="m 0,0 c 24.766,6.914 52.326,-14.29 61.56,-47.363 9.235,-33.075 -3.355,-65.491 -28.121,-72.405 l -242.485,-67.705 -6.009,21.518 c -9.401,8.575 -17.05,20.86 -21.126,35.459 -4.077,14.6 -3.897,29.069 -0.299,41.275 l -6.007,21.517 z"
             style="fill:#c96500;fill-opacity:1;fill-rule:evenodd;stroke:none"
             id="path16841" />
        </g>
        <g
           id="g16843"
           transform="translate(489.6992,415.541)">
          <path
             d="m 0,0 c 0.67,-1.869 1.282,-3.78 1.828,-5.736 9.235,-33.073 -3.355,-65.49 -28.121,-72.404 l -239.416,-66.848 4.439,18.612 C -198.865,-108.283 -2.987,-54.541 0,0"
             style="fill:#b05800;fill-opacity:1;fill-rule:evenodd;stroke:none"
             id="path16845" />
        </g>
        <g
           id="g16847"
           transform="translate(180.8418,393.8091)">
          <path
             d="m 0,0 c 27.143,7.578 57.351,-15.663 67.472,-51.912 10.12,-36.249 -3.679,-71.776 -30.822,-79.355 l -37.732,-10.535 -6.583,23.582 c -10.305,9.4 -18.687,22.863 -23.156,38.865 -4.467,16.001 -4.273,31.859 -0.327,45.237 l -6.584,23.583 z"
             style="fill:#de7309;fill-opacity:1;fill-rule:evenodd;stroke:none"
             id="path16849" />
        </g>
        <g
           id="g16851"
           transform="translate(251.3223,311.0176)">
          <path
             d="m 0,0 c -2.084,-23.727 -14.61,-43.11 -33.83,-48.476 l -19.503,-5.444 c -2.1,10.562 -4.454,23.302 -6.101,29.984 C -34.783,-33.763 -4.037,-9.348 0,0"
             style="fill:#d16a02;fill-opacity:1;fill-rule:evenodd;stroke:none"
             id="path16853" />
        </g>
        <g
           id="g16855"
           transform="translate(141.4854,392.1147)">
          <path
             d="m 0,0 c 30.708,8.574 64.886,-17.721 76.335,-58.73 11.451,-41.012 -4.161,-81.207 -34.869,-89.782 l -42.689,-11.918 -7.449,26.679 c -11.657,10.636 -21.143,25.867 -26.196,43.97 -5.056,18.103 -4.834,36.046 -0.371,51.182 l -7.449,26.68 z"
             style="fill:#eb821a;fill-opacity:1;fill-rule:evenodd;stroke:none"
             id="path16857" />
        </g>
        <g
           id="g16859"
           transform="translate(220.959,295.8525)">
          <path
             d="m 0,0 c -3.018,-25.656 -16.968,-46.375 -38.008,-52.249 l -42.688,-11.92 -7.449,26.681 c -0.456,0.415 -0.907,0.838 -1.355,1.267 C -52.569,-35.822 -7.4,-9.513 0,0"
             style="fill:#e07912;fill-opacity:1;fill-rule:evenodd;stroke:none"
             id="path16861" />
        </g>
        <g
           id="g16863"
           transform="translate(98.7969,380.1958)">
          <path
             d="m 0,0 c 30.708,8.574 64.885,-17.721 76.334,-58.73 11.45,-41.012 -4.16,-81.207 -34.868,-89.782 -30.709,-8.574 -64.885,17.72 -76.336,58.732 C -46.32,-48.77 -30.708,-8.574 0,0"
             style="fill:#f7b26c;fill-opacity:1;fill-rule:evenodd;stroke:none"
             id="path16865" />
        </g>
        <g
           id="g16867"
           transform="translate(100.5742,373.8281)">
          <path
             d="m 0,0 c 27.144,7.579 57.632,-16.673 68.1,-54.167 10.47,-37.494 -3.048,-74.031 -30.19,-81.61 -27.142,-7.577 -57.632,16.673 -68.1,54.167 C -40.658,-44.115 -27.143,-7.577 0,0"
             style="fill:#bf640a;fill-opacity:1;fill-rule:evenodd;stroke:none"
             id="path16869" />
        </g>
        <g
           id="g16871"
           transform="translate(132.1543,369.4434)">
          <path
             d="m 0,0 c 16.115,-8.733 30.092,-26.759 36.52,-49.782 6.429,-23.022 3.811,-45.681 -5.449,-61.499 -16.115,8.732 -30.092,26.76 -36.521,49.78 C -11.879,-38.479 -9.26,-15.819 0,0"
             style="fill:#d46f0b;fill-opacity:1;fill-rule:evenodd;stroke:none"
             id="path16873" />
        </g>
        <g
           id="g16875"
           transform="translate(110.8262,375.2144)">
          <path
             d="m 0,0 c -20.654,-12.566 -29.878,-44.659 -20.712,-77.488 9.165,-32.828 33.68,-55.5 57.858,-55.549 -1.143,-0.696 -2.321,-1.331 -3.534,-1.903 -25.424,-2.627 -52.185,20.709 -61.858,55.349 -9.672,34.641 1.133,68.466 24.238,79.387 C -2.674,-0.064 -1.337,0.004 0,0"
             style="fill:#333333;fill-opacity:1;fill-rule:evenodd;stroke:none"
             id="path16877" />
        </g>
        <g
           id="g16879"
           transform="translate(382.3838,437.1777)">
          <path
             d="m 0,0 v 33.134 h -22.339 c -10.789,6.748 -24.678,10.812 -39.835,10.812 -15.157,0 -29.047,-4.064 -39.836,-10.812 h -22.338 v -59.805 c -2.053,-30.411 49.791,-42.088 85.047,-32.796 C -12.412,-52.379 1.49,-33.246 0,0"
             style="fill:#de6f00;fill-opacity:1;fill-rule:evenodd;stroke:none"
             id="path16881" />
        </g>
        <g
           id="g16883"
           transform="translate(382.3838,437.1777)">
          <path
             d="M 0,0 V 29.947 L -16.732,20.666 C -16.923,1.359 -17.556,-14.739 -18.895,-49.95 -5.982,-40.542 1.74,-22.697 0,0"
             style="fill:#c26100;fill-opacity:1;fill-rule:evenodd;stroke:none"
             id="path16885" />
        </g>
        <g
           id="g16887"
           transform="translate(252.0664,475.5366)">
          <path
             d="m 0,0 c 0,-28.181 30.509,-51.026 68.144,-51.026 37.635,0 68.142,22.845 68.142,51.026 v 39.175 h -24.482 c -11.827,7.397 -27.047,11.851 -43.66,11.851 -16.613,0 -31.835,-4.454 -43.66,-11.851 H 0 Z"
             style="fill:#ed7f11;fill-opacity:1;fill-rule:evenodd;stroke:none"
             id="path16889" />
        </g>
        <g
           id="g16891"
           transform="translate(350.7617,429.918)">
          <path
             d="M 0,0 C 22.293,8.388 37.593,25.664 37.593,45.618 V 65.867 C 26.854,65.05 13.949,63.892 7.069,63.68 23.165,42.581 7.918,6.402 0,0"
             style="fill:#de7104;fill-opacity:1;fill-rule:evenodd;stroke:none"
             id="path16893" />
        </g>
        <g
           id="g16895"
           transform="translate(243.1143,513.8984)">
          <path
             d="m 0,0 c 0,-31.883 34.517,-57.729 77.096,-57.729 42.578,0 77.096,25.846 77.096,57.729 V 44.322 H 126.49 C 113.111,52.69 95.893,57.729 77.096,57.729 58.3,57.729 41.079,52.69 27.7,44.322 H 0 Z"
             style="fill:#f78e25;fill-opacity:1;fill-rule:evenodd;stroke:none"
             id="path16897" />
        </g>
        <g
           id="g16899"
           transform="translate(357.2031,463.2397)">
          <path
             d="M 0,0 C 23.898,9.805 40.102,28.815 40.102,50.658 V 94.98 h -27.7 c -0.523,0.327 -1.05,0.649 -1.584,0.963 C 20.364,60.267 7.171,9.686 0,0"
             style="fill:#eb821a;fill-opacity:1;fill-rule:evenodd;stroke:none"
             id="path16901" />
        </g>
        <g
           id="g16903"
           transform="translate(243.1143,558.2197)">
          <path
             d="m 0,0 c 0,-31.882 34.517,-57.729 77.096,-57.729 42.578,0 77.096,25.847 77.096,57.729 0,31.883 -34.518,57.729 -77.096,57.729 C 34.517,57.729 0,31.883 0,0"
             style="fill:#f7b26c;fill-opacity:1;fill-rule:evenodd;stroke:none"
             id="path16905" />
        </g>
        <g
           id="g16907"
           transform="translate(249.7246,558.2197)">
          <path
             d="m 0,0 c 0,-28.18 31.558,-51.025 70.485,-51.025 38.928,0 70.486,22.845 70.486,51.025 0,28.181 -31.558,51.025 -70.486,51.025 C 31.558,51.025 0,28.181 0,0"
             style="fill:#bf640a;fill-opacity:1;fill-rule:evenodd;stroke:none"
             id="path16909" />
        </g>
        <g
           id="g16911"
           transform="translate(262.4404,528.9829)">
          <path
             d="m 0,0 c 12.746,-13.173 33.866,-21.788 57.77,-21.788 23.903,0 45.024,8.615 57.769,21.788 C 102.794,13.173 81.673,21.788 57.77,21.788 33.866,21.788 12.746,13.173 0,0"
             style="fill:#d46f0b;fill-opacity:1;fill-rule:evenodd;stroke:none"
             id="path16913" />
        </g>
        <g
           id="g16915"
           transform="translate(251.1475,547.9722)">
          <path
             d="m 0,0 c 6.55,23.274 34.979,40.788 69.063,40.788 34.084,0 62.513,-17.514 69.063,-40.788 0.362,1.289 0.657,2.595 0.882,3.915 C 134.7,29.109 105.027,48.609 69.063,48.609 33.096,48.609 3.425,29.109 -0.883,3.915 -0.657,2.595 -0.362,1.289 0,0"
             style="fill:#333333;fill-opacity:1;fill-rule:evenodd;stroke:none"
             id="path16917" />
        </g>
      </g>
    </g>
  </g>
</svg>
