<?xml version="1.0" standalone="no"?>
<!DOCTYPE svg PUBLIC "-//W3C//DTD SVG 20010904//EN"
 "http://www.w3.org/TR/2001/REC-SVG-20010904/DTD/svg10.dtd">
<svg version="1.0" xmlns="http://www.w3.org/2000/svg"
 width="3464.000000pt" height="3464.000000pt" viewBox="0 0 3464.000000 3464.000000"
 preserveAspectRatio="xMidYMid meet">
<metadata>
Created by potrace 1.14, written by Peter Selinger 2001-2017
</metadata>
<g transform="translate(0.000000,3464.000000) scale(0.100000,-0.100000)"
fill="#000000" stroke="none">
<path d="M0 17320 l0 -17320 17320 0 17320 0 0 17320 0 17320 -17320 0 -17320
0 0 -17320z m23885 8565 c1821 -7 1727 -4 1741 -62 11 -41 -9 -67 -60 -81 -40
-10 -51 -19 -81 -67 -25 -38 -47 -60 -72 -70 -50 -21 -70 -41 -93 -92 -16 -37
-28 -47 -70 -65 -45 -19 -55 -28 -81 -79 -24 -49 -38 -63 -79 -84 -37 -19 -55
-36 -71 -68 -29 -57 -46 -75 -79 -82 -34 -7 -64 -39 -84 -87 -16 -36 -58 -78
-81 -78 -18 0 -57 -46 -80 -93 -15 -32 -32 -48 -69 -67 -52 -26 -57 -32 -82
-93 -11 -29 -25 -43 -58 -57 -49 -22 -66 -39 -94 -95 -16 -31 -32 -46 -72 -64
-45 -20 -55 -30 -78 -80 -26 -53 -43 -69 -120 -107 -7 -3 -24 -31 -39 -61 -21
-45 -33 -59 -67 -74 -47 -20 -70 -43 -81 -77 -9 -31 -52 -80 -86 -98 -16 -8
-43 -36 -59 -62 -17 -27 -51 -62 -82 -82 -29 -20 -68 -58 -88 -86 -19 -28 -82
-97 -140 -153 -58 -56 -154 -152 -215 -213 -60 -61 -182 -184 -270 -272 -88
-89 -192 -195 -231 -236 -62 -66 -138 -143 -184 -186 -61 -57 -263 -259 -295
-296 -22 -24 -53 -55 -70 -69 -16 -13 -45 -42 -64 -63 -18 -22 -55 -56 -82
-77 -26 -21 -59 -58 -73 -81 -14 -24 -48 -59 -75 -78 -27 -19 -62 -54 -77 -77
-16 -23 -51 -56 -77 -73 -28 -18 -62 -54 -82 -84 -20 -32 -53 -66 -82 -84 -29
-19 -59 -49 -72 -73 -14 -25 -44 -54 -77 -75 -33 -21 -66 -53 -83 -80 -15 -25
-48 -58 -72 -74 -24 -16 -60 -53 -79 -82 -21 -31 -53 -62 -80 -78 -27 -15 -59
-47 -80 -78 -19 -28 -56 -65 -82 -81 -32 -21 -55 -45 -72 -78 -17 -34 -37 -55
-67 -73 -48 -26 -69 -47 -100 -100 -12 -21 -41 -47 -70 -63 -37 -21 -55 -40
-74 -78 -17 -33 -37 -55 -63 -69 -53 -28 -75 -49 -102 -97 -16 -29 -37 -50
-66 -63 -48 -24 -64 -40 -91 -94 -13 -26 -33 -45 -64 -60 -33 -17 -53 -37 -79
-80 -25 -43 -47 -65 -82 -85 -36 -20 -54 -38 -74 -78 -18 -34 -36 -56 -56 -64
-47 -19 -75 -47 -105 -100 -20 -39 -39 -57 -74 -75 -52 -26 -57 -31 -80 -89
-21 -51 -67 -69 -100 -39 -18 16 -20 28 -17 80 3 53 10 71 43 119 59 83 93
154 100 205 15 99 38 165 78 224 54 77 61 95 87 202 25 105 46 156 92 215 26
35 39 68 57 145 33 145 37 155 86 221 39 53 50 78 79 190 28 111 40 141 84
208 35 53 55 96 62 134 26 133 42 178 79 231 57 82 69 110 93 212 24 107 44
154 92 220 27 38 41 75 64 173 21 88 39 138 59 167 15 23 38 56 50 74 12 18
34 79 48 135 26 106 52 167 109 256 20 31 38 78 46 115 23 120 40 163 89 236
39 57 54 90 67 150 23 108 56 191 98 250 38 52 52 93 80 224 12 55 27 90 55
130 56 77 67 104 92 209 22 96 56 178 90 214 27 30 46 80 74 200 21 91 33 119
79 188 43 65 57 98 71 162 23 106 49 174 86 225 41 57 57 96 80 203 26 120 61
184 121 221 31 20 109 35 153 30 17 -2 782 -6 1700 -9z m1963 -9783 c16 -24
17 -113 15 -1187 -2 -1397 -22 -4947 -32 -5665 -6 -441 -9 -520 -23 -552 -9
-20 -25 -41 -35 -46 -11 -5 -408 -6 -1028 -1 -4593 37 -7275 52 -13353 76
l-1624 6 -15 23 c-19 29 -11 86 23 164 13 30 59 152 103 270 44 118 89 238
101 265 11 28 47 129 81 225 34 96 67 189 75 205 7 17 34 88 59 158 25 71 56
152 69 180 72 158 127 264 144 283 11 12 49 28 87 38 36 9 102 35 146 57 54
28 114 48 191 64 128 27 169 42 230 85 41 28 68 37 271 84 38 9 89 29 114 46
88 60 126 73 277 100 65 11 128 38 194 82 38 27 89 42 254 78 31 7 74 23 95
36 98 59 144 78 250 100 108 23 136 34 258 104 32 18 88 36 155 49 104 21 210
56 210 71 0 19 131 71 214 86 104 18 162 39 230 82 57 36 106 53 230 78 61 12
105 28 145 52 93 58 125 71 227 92 133 28 160 38 219 76 72 45 117 62 209 79
105 18 157 37 223 81 64 43 105 57 242 84 81 16 116 29 158 56 66 44 139 73
218 85 90 14 152 38 228 85 42 26 94 48 135 58 37 8 100 22 139 31 49 12 95
31 142 61 59 38 89 49 202 75 94 21 148 39 186 62 103 61 139 75 247 95 110
21 167 45 219 88 31 26 66 37 205 65 96 19 145 39 223 89 28 18 83 39 135 51
154 37 224 61 264 90 42 30 129 62 200 73 85 14 151 37 208 74 84 54 122 69
209 82 93 14 170 42 228 81 62 42 96 54 220 79 67 13 128 31 155 47 132 76
148 83 240 99 102 18 174 46 242 92 49 34 87 47 178 62 96 16 157 38 223 81
64 42 123 61 252 85 60 11 102 26 142 51 99 60 125 70 223 88 90 17 122 29
265 104 35 18 107 41 174 56 63 14 134 36 158 50 23 14 64 37 89 51 26 16 91
36 157 50 120 25 174 45 223 80 47 35 100 53 224 80 94 20 129 33 190 70 74
45 115 59 261 89 52 11 98 29 144 56 92 56 117 65 250 93 96 21 128 33 191 71
74 45 98 53 268 91 54 12 97 30 140 57 67 44 143 71 242 87 67 11 128 36 228
94 40 24 90 41 165 56 123 26 152 37 241 90 49 29 91 44 170 61 122 25 192 50
238 85 41 32 118 58 228 79 93 17 119 28 199 81 39 26 78 40 170 59 130 28
183 47 230 80 50 37 123 64 213 81 78 14 140 37 210 78 31 18 59 10 80 -22z"/>
</g>
</svg>
